<svg width="64" height="49" viewBox="0 0 64 49" fill="none" xmlns="http://www.w3.org/2000/svg">
<path d="M30.417 1.89486C31.4546 1.2958 32.7329 1.2958 33.7705 1.89486L51.2016 11.9587C52.2392 12.5577 52.8784 13.6648 52.8784 14.863V34.9906C52.8784 36.1887 52.2392 37.2958 51.2016 37.8949L33.7705 47.9587C32.7329 48.5577 31.4546 48.5577 30.417 47.9587L12.9859 37.8949C11.9483 37.2958 11.3091 36.1887 11.3091 34.9906V14.863C11.3091 13.6648 11.9483 12.5577 12.9859 11.9587L30.417 1.89486Z" fill="#FF7900"/>
<path d="M30.417 6.38705C31.4546 5.78798 32.733 5.78798 33.7706 6.38705L47.3112 14.2048C48.3489 14.8038 48.988 15.9109 48.988 17.1091V32.7445C48.988 33.9426 48.3489 35.0497 47.3112 35.6488L33.7706 43.4665C32.733 44.0656 31.4546 44.0656 30.417 43.4665L16.8763 35.6488C15.8387 35.0497 15.1995 33.9426 15.1995 32.7445V17.1091C15.1995 15.9109 15.8387 14.8038 16.8763 14.2048L30.417 6.38705Z" fill="#FEB929"/>
<rect x="32.0605" y="14.8047" width="14.2281" height="14.2281" transform="rotate(45 32.0605 14.8047)" fill="#B97736"/>
<path fill-rule="evenodd" clip-rule="evenodd" d="M14.6991 21.5371L14.7234 21.5398V28.3158L3.96222 26.9643L0.75 21.5371H14.6991Z" fill="#FF7900"/>
<path fill-rule="evenodd" clip-rule="evenodd" d="M49.4884 21.5371L49.4641 21.5398V28.3158L60.2253 26.9643L63.4375 21.5371H49.4884Z" fill="#FF7900"/>
</svg>
