<svg width="72" height="49" viewBox="0 0 72 49" fill="none" xmlns="http://www.w3.org/2000/svg">
<path d="M34.3701 1.89486C35.4077 1.2958 36.6861 1.2958 37.7237 1.89486L55.1547 11.9587C56.1923 12.5577 56.8315 13.6648 56.8315 14.863V34.9906C56.8315 36.1887 56.1923 37.2958 55.1547 37.8949L37.7237 47.9587C36.6861 48.5577 35.4077 48.5577 34.3701 47.9587L16.9391 37.8949C15.9015 37.2958 15.2623 36.1887 15.2623 34.9906V14.863C15.2623 13.6648 15.9015 12.5577 16.9391 11.9587L34.3701 1.89486Z" fill="#32742D"/>
<path d="M34.3701 6.38705C35.4077 5.78798 36.6861 5.78798 37.7237 6.38705L51.2644 14.2048C52.302 14.8038 52.9412 15.9109 52.9412 17.1091V32.7445C52.9412 33.9426 52.302 35.0497 51.2644 35.6488L37.7237 43.4665C36.6861 44.0656 35.4077 44.0656 34.3701 43.4665L20.8294 35.6488C19.7918 35.0497 19.1526 33.9426 19.1526 32.7445V17.1091C19.1526 15.9109 19.7918 14.8038 20.8294 14.2048L34.3701 6.38705Z" fill="#B4E501"/>
<path d="M36.1055 14.9258L39.3971 20.3953L45.616 21.8356L41.4314 26.6563L41.9833 33.016L36.1055 30.5258L30.2276 33.016L30.7796 26.6563L26.5949 21.8356L32.8139 20.3953L36.1055 14.9258Z" fill="#61A612"/>
<path fill-rule="evenodd" clip-rule="evenodd" d="M3.71309 23.4198L0.5 17.9912H18.6756V25.0832H18.6513L3.71309 23.4198Z" fill="#32742D"/>
<path fill-rule="evenodd" clip-rule="evenodd" d="M18.6522 25.083L18.6765 25.0857V31.8617L7.91535 30.5102L4.70312 25.083H18.6522Z" fill="#32742D"/>
<path fill-rule="evenodd" clip-rule="evenodd" d="M68.3807 23.4198L71.5938 17.9912H53.4182V25.0832H53.4424L68.3807 23.4198Z" fill="#32742D"/>
<path fill-rule="evenodd" clip-rule="evenodd" d="M53.4415 25.083L53.4173 25.0857V31.8617L64.1784 30.5102L67.3906 25.083H53.4415Z" fill="#32742D"/>
</svg>
