<svg width="48" height="49" viewBox="0 0 48 49" fill="none" xmlns="http://www.w3.org/2000/svg">
<path d="M22.3232 1.89486C23.3608 1.2958 24.6392 1.2958 25.6768 1.89486L43.1078 11.9587C44.1454 12.5577 44.7846 13.6648 44.7846 14.863V34.9906C44.7846 36.1887 44.1454 37.2958 43.1078 37.8949L25.6768 47.9587C24.6392 48.5577 23.3608 48.5577 22.3232 47.9587L4.89219 37.8949C3.85458 37.2958 3.21539 36.1887 3.21539 34.9906V14.863C3.21539 13.6648 3.85458 12.5577 4.89219 11.9587L22.3232 1.89486Z" fill="#6F00FF"/>
<path d="M22.3232 6.38705C23.3608 5.78798 24.6392 5.78798 25.6768 6.38705L39.2175 14.2048C40.2551 14.8038 40.8943 15.9109 40.8943 17.1091V32.7445C40.8943 33.9426 40.2551 35.0497 39.2175 35.6488L25.6768 43.4665C24.6392 44.0656 23.3608 44.0656 22.3232 43.4665L8.78254 35.6488C7.74494 35.0497 7.10574 33.9426 7.10574 32.7445V17.1091C7.10574 15.9109 7.74493 14.8038 8.78254 14.2048L22.3232 6.38705Z" fill="#6500E8"/>
<path d="M23.9979 13.6201L25.6849 23.2397L35.3044 24.9266L25.6849 26.6136L23.9979 36.2332L22.311 26.6136L12.6914 24.9266L22.311 23.2397L23.9979 13.6201Z" fill="#5BF7E1"/>
<path d="M31.9949 16.9314L26.3857 24.9264L31.9949 32.9213L24 27.312L16.0051 32.9213L21.6143 24.9264L16.0051 16.9314L24 22.5407L31.9949 16.9314Z" fill="#5BF7E1"/>
</svg>
