<svg width="40" height="40" viewBox="0 0 40 40" fill="none" xmlns="http://www.w3.org/2000/svg">
<rect width="40" height="40" rx="7.27273" fill="#6F00FF"/>
<path fill-rule="evenodd" clip-rule="evenodd" d="M18.8574 9.09095H19.1491H33.6278L30.5822 12.7718V29.2977C30.5822 29.2977 29.6326 30.9091 27.3718 30.9091C23.9205 30.9091 23.4212 27.372 23.4212 27.372C23.4212 27.372 23.1478 26.2476 22.5902 25.4472C22.4681 25.272 22.3323 25.1123 22.1829 24.9833C21.5094 24.4022 20.7617 24.62 20.198 24.3233C19.6344 24.0267 17.687 23.0054 17.537 20.1591H17.5583L17.5368 20.1542C17.5318 20.0589 17.5293 19.9615 17.5293 19.8619C17.5293 16.9555 20.6253 15.2727 20.968 15.0953L20.8636 15.0773L8.72159 12.9798L6.375 9.09095H18.8574ZM29.3389 15.9229C29.3389 16.5298 28.8248 17.0217 28.1906 17.0217C27.5563 17.0217 27.0422 16.5298 27.0422 15.9229C27.0422 15.3161 27.5563 14.8242 28.1906 14.8242C28.8248 14.8242 29.3389 15.3161 29.3389 15.9229Z" fill="white"/>
<path fill-rule="evenodd" clip-rule="evenodd" d="M16.995 18.9223C17.383 17.2448 18.5822 15.8589 20.1786 15.1608L9.30078 15.1429L11.6474 19.0318L16.8622 20.2167C16.8618 20.1955 16.8614 20.1743 16.8612 20.1531C16.8611 20.1356 16.861 20.1181 16.861 20.1006C16.861 20.053 16.8616 20.0055 16.8629 19.9582C16.8646 19.8958 16.8673 19.8337 16.8712 19.7718C16.8826 19.4754 16.926 19.1921 16.995 18.9223ZM16.8682 19.9276C16.8682 19.9577 16.8685 19.9875 16.8689 20.0172C16.8693 20.0428 16.8699 20.0682 16.8706 20.0935C16.8718 20.1345 16.8737 20.175 16.8757 20.2153C16.8745 20.1914 16.8734 20.1674 16.8724 20.1432C16.8717 20.1267 16.8711 20.1102 16.8706 20.0935C16.869 20.0389 16.8682 19.9836 16.8682 19.9276Z" fill="white"/>
<path fill-rule="evenodd" clip-rule="evenodd" d="M12.3438 20.2197L14.6903 24.1085L19.4584 24.6625C17.9281 23.7158 16.9044 22.0834 16.8625 20.2197H12.3438Z" fill="white"/>
</svg>
