<svg width="82" height="49" viewBox="0 0 82 49" fill="none" xmlns="http://www.w3.org/2000/svg">
<path d="M39.0654 1.89486C40.103 1.2958 41.3814 1.2958 42.419 1.89486L59.85 11.9587C60.8876 12.5577 61.5268 13.6648 61.5268 14.863V34.9906C61.5268 36.1887 60.8876 37.2958 59.85 37.8949L42.419 47.9587C41.3814 48.5577 40.103 48.5577 39.0654 47.9587L21.6344 37.8949C20.5968 37.2958 19.9576 36.1887 19.9576 34.9906V14.863C19.9576 13.6648 20.5968 12.5577 21.6344 11.9587L39.0654 1.89486Z" fill="#33138E"/>
<path d="M39.0654 6.38705C40.103 5.78798 41.3814 5.78798 42.419 6.38705L55.9597 14.2048C56.9973 14.8038 57.6365 15.9109 57.6365 17.1091V32.7445C57.6365 33.9426 56.9973 35.0497 55.9597 35.6488L42.419 43.4665C41.3814 44.0656 40.103 44.0656 39.0654 43.4665L25.5247 35.6488C24.4871 35.0497 23.8479 33.9426 23.8479 32.7445V17.1091C23.8479 15.9109 24.4871 14.8038 25.5247 14.2048L39.0654 6.38705Z" fill="#42D6FE"/>
<path d="M40.8215 36.6641L30.1632 22.3422L34.2836 16.5425L47.3594 16.5425L51.3203 22.3422L40.8215 36.6641Z" fill="#6F32F9"/>
<path fill-rule="evenodd" clip-rule="evenodd" d="M8.4084 27.4032L5.19531 21.9746H23.3709V29.0666H23.3466L8.4084 27.4032Z" fill="#33138E"/>
<path fill-rule="evenodd" clip-rule="evenodd" d="M3.46474 19.0515L0.25 13.6201H23.3704V21.9678L3.46474 19.0515Z" fill="#33138E"/>
<path fill-rule="evenodd" clip-rule="evenodd" d="M23.3475 29.0664L23.3718 29.0691V35.8451L12.6107 34.4936L9.39844 29.0664H23.3475Z" fill="#33138E"/>
<path fill-rule="evenodd" clip-rule="evenodd" d="M73.076 27.4032L76.2891 21.9746H58.1135V29.0666H58.1377L73.076 27.4032Z" fill="#33138E"/>
<path fill-rule="evenodd" clip-rule="evenodd" d="M78.0196 19.0515L81.2344 13.6201H58.114V21.9678L78.0196 19.0515Z" fill="#33138E"/>
<path fill-rule="evenodd" clip-rule="evenodd" d="M58.1368 29.0664L58.1126 29.0691V35.8451L68.8737 34.4936L72.0859 29.0664H58.1368Z" fill="#33138E"/>
</svg>
