<svg width="69" height="56" viewBox="0 0 69 56" fill="none" xmlns="http://www.w3.org/2000/svg">
<path fill-rule="evenodd" clip-rule="evenodd" d="M31.2763 0.727305H32.0055H68.2022L60.5883 9.92935V51.2441C60.5883 51.2441 58.2144 55.2728 52.5622 55.2728C43.934 55.2728 42.6858 46.43 42.6858 46.43C42.6858 46.43 42.0024 43.6189 40.6083 41.6181C40.303 41.1799 39.9637 40.7807 39.59 40.4582C37.9062 39.0054 36.0371 39.5498 34.6279 38.8082C33.2188 38.0666 28.3504 35.5134 27.9754 28.3976H28.0286L27.9747 28.3854C27.9624 28.1471 27.956 27.9036 27.956 27.6547C27.956 20.3887 35.696 16.1816 36.5527 15.7382L36.2919 15.6932L5.9368 10.4494L0.0703064 0.727305H31.2763ZM57.4801 17.8073C57.4801 19.3244 56.1948 20.5542 54.6092 20.5542C53.0236 20.5542 51.7383 19.3244 51.7383 17.8073C51.7383 16.2902 53.0236 15.0604 54.6092 15.0604C56.1948 15.0604 57.4801 16.2902 57.4801 17.8073Z" fill="white"/>
<path fill-rule="evenodd" clip-rule="evenodd" d="M26.6261 25.3061C27.5962 21.1122 30.5941 17.6476 34.5853 15.9022L7.39062 15.8577L13.2571 25.5797L26.2942 28.5421C26.293 28.4891 26.2922 28.4361 26.2917 28.3829C26.2913 28.3393 26.2911 28.2956 26.2911 28.2518C26.2911 28.1328 26.2927 28.0141 26.2959 27.8958C26.3001 27.7399 26.307 27.5845 26.3167 27.4299C26.345 26.6887 26.4536 25.9806 26.6261 25.3061ZM26.3092 27.8192C26.3092 27.8944 26.3098 27.9692 26.3109 28.0434C26.3119 28.1074 26.3133 28.1709 26.3152 28.2341C26.3181 28.3366 26.3229 28.4379 26.328 28.5385C26.325 28.4787 26.3221 28.4187 26.3196 28.3583C26.3179 28.3171 26.3164 28.2757 26.3152 28.2341C26.3112 28.0975 26.3092 27.9592 26.3092 27.8192Z" fill="white"/>
<path fill-rule="evenodd" clip-rule="evenodd" d="M14.998 28.5493L20.8645 38.2714L32.7846 39.6562C28.9589 37.2895 26.3998 33.2085 26.2949 28.5493H14.998Z" fill="white"/>
</svg>
